# xmcd CD database file
#
# Track frame offsets:
#	150
#	40837
#	63419
#	96398
#	119226
#	156959
#	175793
#	206335
#	231161
#
# Disc length: 3691 seconds
#
# Revision: 0
# Processed by: cddbd v1.5.2PL0 Copyright (c) Steve Scherf et al.
# Submitted via: CDex 1.70beta2
#
DISCID=7c0e6909
DTITLE=Nils Wogram Nostalgia - Affinity
DYEAR=2008
DGENRE=Jazz
TTITLE0=Affinity
TTITLE1=Flashback
TTITLE2=Bus
TTITLE3=Jack-of-all Trades
TTITLE4=Hope
TTITLE5=Clash
TTITLE6=Blury Moments
TTITLE7=Rocky Beach
TTITLE8=Where Everything Comes From
EXTD=YEAR: 2008
EXTT0=
EXTT1=
EXTT2=
EXTT3=
EXTT4=
EXTT5=
EXTT6=
EXTT7=
EXTT8=
PLAYORDER=
